<mxfile host="app.diagrams.net" agent="Mozilla/5.0 (Windows NT 10.0; Win64; x64; rv:143.0) Gecko/20100101 Firefox/143.0" version="28.2.4">
  <diagram name="Страница — 1" id="yLtqsdLyZenQX1GJ1IhD">
    <mxGraphModel dx="1327" dy="983" grid="0" gridSize="10" guides="1" tooltips="1" connect="1" arrows="1" fold="1" page="0" pageScale="1" pageWidth="827" pageHeight="1169" math="0" shadow="0">
      <root>
        <mxCell id="0" />
        <mxCell id="1" parent="0" />
        <mxCell id="vxo2_MmbldthmeWOhvXQ-1" value="" style="rounded=0;whiteSpace=wrap;html=1;" parent="1" vertex="1">
          <mxGeometry x="69" y="-13" width="222" height="123" as="geometry" />
        </mxCell>
        <mxCell id="vxo2_MmbldthmeWOhvXQ-5" value="Причёска" style="text;strokeColor=none;fillColor=none;html=1;align=center;verticalAlign=middle;whiteSpace=wrap;rounded=0;fontSize=26;strokeWidth=1;" parent="1" vertex="1">
          <mxGeometry x="100.5" y="9" width="159" height="79" as="geometry" />
        </mxCell>
        <mxCell id="vxo2_MmbldthmeWOhvXQ-6" value="" style="endArrow=classic;html=1;rounded=0;fontSize=12;startSize=8;endSize=8;curved=1;entryX=-0.012;entryY=0.94;entryDx=0;entryDy=0;entryPerimeter=0;" parent="1" edge="1">
          <mxGeometry width="50" height="50" relative="1" as="geometry">
            <mxPoint x="-21.34" y="94.32" as="sourcePoint" />
            <mxPoint x="68.99600000000001" y="94.00000000000006" as="targetPoint" />
          </mxGeometry>
        </mxCell>
        <mxCell id="vxo2_MmbldthmeWOhvXQ-8" value="" style="endArrow=classic;html=1;rounded=0;fontSize=12;startSize=8;endSize=8;curved=1;" parent="1" edge="1">
          <mxGeometry width="50" height="50" relative="1" as="geometry">
            <mxPoint x="-17" y="9" as="sourcePoint" />
            <mxPoint x="69" y="9" as="targetPoint" />
          </mxGeometry>
        </mxCell>
        <mxCell id="vxo2_MmbldthmeWOhvXQ-10" value="&lt;div&gt;Данные клиента&lt;/div&gt;" style="text;strokeColor=none;fillColor=none;html=1;align=center;verticalAlign=middle;whiteSpace=wrap;rounded=0;fontSize=16;" parent="1" vertex="1">
          <mxGeometry x="-65" y="100" width="132" height="17" as="geometry" />
        </mxCell>
        <mxCell id="vxo2_MmbldthmeWOhvXQ-12" value="&lt;div&gt;Прайс-лист&lt;/div&gt;" style="text;strokeColor=none;fillColor=none;html=1;align=center;verticalAlign=middle;whiteSpace=wrap;rounded=0;fontSize=16;" parent="1" vertex="1">
          <mxGeometry x="-33" y="29" width="102" height="19" as="geometry" />
        </mxCell>
        <mxCell id="vxo2_MmbldthmeWOhvXQ-15" value="" style="endArrow=classic;html=1;rounded=0;fontSize=12;startSize=8;endSize=8;curved=1;entryX=0.063;entryY=1.015;entryDx=0;entryDy=0;entryPerimeter=0;" parent="1" edge="1">
          <mxGeometry width="50" height="50" relative="1" as="geometry">
            <mxPoint x="110.51" y="183.42" as="sourcePoint" />
            <mxPoint x="110.49600000000011" y="109.99999999999991" as="targetPoint" />
            <Array as="points">
              <mxPoint x="110.51" y="132.42" />
            </Array>
          </mxGeometry>
        </mxCell>
        <mxCell id="vxo2_MmbldthmeWOhvXQ-16" value="&lt;div&gt;Парихмакер&lt;/div&gt;" style="text;strokeColor=none;fillColor=none;html=1;align=center;verticalAlign=middle;whiteSpace=wrap;rounded=0;fontSize=16;" parent="1" vertex="1">
          <mxGeometry x="59" y="185" width="104" height="19" as="geometry" />
        </mxCell>
        <mxCell id="vxo2_MmbldthmeWOhvXQ-18" value="Кассовый журнал" style="text;strokeColor=none;fillColor=none;html=1;align=center;verticalAlign=middle;whiteSpace=wrap;rounded=0;fontSize=16;" parent="1" vertex="1">
          <mxGeometry x="298" y="80" width="74" height="37" as="geometry" />
        </mxCell>
        <mxCell id="vxo2_MmbldthmeWOhvXQ-21" value="Чек" style="text;strokeColor=none;fillColor=none;html=1;align=center;verticalAlign=middle;whiteSpace=wrap;rounded=0;fontSize=16;" parent="1" vertex="1">
          <mxGeometry x="299" y="-23" width="73" height="16" as="geometry" />
        </mxCell>
        <mxCell id="vxo2_MmbldthmeWOhvXQ-24" value="" style="endArrow=classic;html=1;rounded=0;fontSize=12;startSize=8;endSize=8;curved=1;entryX=0.063;entryY=1.015;entryDx=0;entryDy=0;entryPerimeter=0;" parent="1" edge="1">
          <mxGeometry width="50" height="50" relative="1" as="geometry">
            <mxPoint x="236" y="183" as="sourcePoint" />
            <mxPoint x="236" y="110" as="targetPoint" />
            <Array as="points">
              <mxPoint x="236" y="132" />
            </Array>
          </mxGeometry>
        </mxCell>
        <mxCell id="vxo2_MmbldthmeWOhvXQ-25" value="Администратор" style="text;strokeColor=none;fillColor=none;html=1;align=center;verticalAlign=middle;whiteSpace=wrap;rounded=0;fontSize=16;" parent="1" vertex="1">
          <mxGeometry x="187" y="185" width="104" height="19" as="geometry" />
        </mxCell>
        <mxCell id="vxo2_MmbldthmeWOhvXQ-28" value="Выбор услуги" style="text;strokeColor=none;fillColor=none;html=1;align=center;verticalAlign=middle;whiteSpace=wrap;rounded=0;fontSize=16;" parent="1" vertex="1">
          <mxGeometry x="-51" y="-13" width="112" height="17" as="geometry" />
        </mxCell>
        <mxCell id="mH3SaxoXagriszs5popn-1" value="" style="endArrow=classic;html=1;rounded=0;fontSize=12;startSize=8;endSize=8;curved=1;entryX=-0.012;entryY=0.94;entryDx=0;entryDy=0;entryPerimeter=0;" parent="1" edge="1">
          <mxGeometry width="50" height="50" relative="1" as="geometry">
            <mxPoint x="-21.34" y="52.319999999999936" as="sourcePoint" />
            <mxPoint x="68.99600000000001" y="52" as="targetPoint" />
          </mxGeometry>
        </mxCell>
        <mxCell id="mH3SaxoXagriszs5popn-3" value="" style="endArrow=classic;html=1;rounded=0;fontSize=12;startSize=8;endSize=8;curved=1;exitX=1;exitY=0.25;exitDx=0;exitDy=0;" parent="1" edge="1">
          <mxGeometry width="50" height="50" relative="1" as="geometry">
            <mxPoint x="291" y="71" as="sourcePoint" />
            <mxPoint x="380" y="71" as="targetPoint" />
          </mxGeometry>
        </mxCell>
        <mxCell id="mH3SaxoXagriszs5popn-8" value="" style="edgeStyle=none;orthogonalLoop=1;jettySize=auto;html=1;rounded=0;entryX=0.25;entryY=0;entryDx=0;entryDy=0;" parent="1" edge="1">
          <mxGeometry width="80" relative="1" as="geometry">
            <mxPoint x="174" y="-91" as="sourcePoint" />
            <mxPoint x="174" y="-13" as="targetPoint" />
            <Array as="points" />
          </mxGeometry>
        </mxCell>
        <mxCell id="mH3SaxoXagriszs5popn-10" value="" style="endArrow=classic;html=1;rounded=0;fontSize=12;startSize=8;endSize=8;curved=1;exitX=1;exitY=0.25;exitDx=0;exitDy=0;" parent="1" edge="1">
          <mxGeometry width="50" height="50" relative="1" as="geometry">
            <mxPoint x="290.5" y="8" as="sourcePoint" />
            <mxPoint x="379.5" y="8" as="targetPoint" />
          </mxGeometry>
        </mxCell>
        <mxCell id="mH3SaxoXagriszs5popn-11" value="" style="edgeStyle=none;orthogonalLoop=1;jettySize=auto;html=1;rounded=0;entryX=0.25;entryY=0;entryDx=0;entryDy=0;" parent="1" edge="1">
          <mxGeometry width="80" relative="1" as="geometry">
            <mxPoint x="81" y="-91" as="sourcePoint" />
            <mxPoint x="81" y="-13" as="targetPoint" />
            <Array as="points" />
          </mxGeometry>
        </mxCell>
        <mxCell id="mH3SaxoXagriszs5popn-12" value="&lt;div&gt;Трудовой&lt;/div&gt;&lt;div&gt;кодекс&lt;/div&gt;" style="text;strokeColor=none;fillColor=none;html=1;align=center;verticalAlign=middle;whiteSpace=wrap;rounded=0;fontSize=16;" parent="1" vertex="1">
          <mxGeometry x="138" y="-135" width="74" height="41" as="geometry" />
        </mxCell>
        <mxCell id="3ddmx0sQ__cjMmI43ifR-1" value="Закон о защите прав потребителей" style="text;strokeColor=none;fillColor=none;html=1;align=center;verticalAlign=middle;whiteSpace=wrap;rounded=0;fontSize=16;" vertex="1" parent="1">
          <mxGeometry x="43" y="-142" width="74" height="41" as="geometry" />
        </mxCell>
        <mxCell id="3ddmx0sQ__cjMmI43ifR-2" value="" style="edgeStyle=none;orthogonalLoop=1;jettySize=auto;html=1;rounded=0;entryX=0.25;entryY=0;entryDx=0;entryDy=0;" edge="1" parent="1">
          <mxGeometry width="80" relative="1" as="geometry">
            <mxPoint x="272" y="-91" as="sourcePoint" />
            <mxPoint x="272" y="-13" as="targetPoint" />
            <Array as="points" />
          </mxGeometry>
        </mxCell>
        <mxCell id="3ddmx0sQ__cjMmI43ifR-3" value="Нормы СанПиНа" style="text;strokeColor=none;fillColor=none;html=1;align=center;verticalAlign=middle;whiteSpace=wrap;rounded=0;fontSize=16;" vertex="1" parent="1">
          <mxGeometry x="237" y="-135" width="74" height="41" as="geometry" />
        </mxCell>
      </root>
    </mxGraphModel>
  </diagram>
</mxfile>
